<svg xmlns="http://www.w3.org/2000/svg" xmlns:xlink="http://www.w3.org/1999/xlink" width="300" zoomAndPan="magnify" viewBox="0 0 224.87999 82.499998" height="110" preserveAspectRatio="xMidYMid meet" version="1.0"><defs><g/></defs><g fill="#ffffff" fill-opacity="1"><g transform="translate(34.44136, 56.630973)"><g><path d="M 4.375 0 L 0.40625 -32.109375 L 6.53125 -32.109375 L 8.890625 -10.265625 L 10.984375 -32.109375 L 17.109375 -32.109375 L 13.140625 0 Z M 4.375 0 "/></g></g></g><g fill="#ffffff" fill-opacity="1"><g transform="translate(51.95161, 56.630973)"><g><path d="M 1.265625 -29.171875 L 1.265625 -33.71875 L 7.8125 -33.71875 L 7.8125 -29.171875 Z M 1.265625 0 L 1.265625 -27.328125 L 7.8125 -27.328125 L 7.8125 0 Z M 1.265625 0 "/></g></g></g><g fill="#ffffff" fill-opacity="1"><g transform="translate(61.02408, 56.630973)"><g><path d="M 1.3125 0 L 1.3125 -32.265625 L 7.953125 -32.265625 L 7.953125 0 Z M 1.3125 0 "/></g></g></g><g fill="#ffffff" fill-opacity="1"><g transform="translate(70.283237, 56.630973)"><g><path d="M 8.96875 0.296875 C 6.15625 0.296875 4.132812 -0.472656 2.90625 -2.015625 C 1.6875 -3.554688 1.078125 -5.859375 1.078125 -8.921875 L 1.078125 -19.90625 C 1.078125 -22.414062 1.800781 -24.332031 3.25 -25.65625 C 4.695312 -26.976562 6.710938 -27.640625 9.296875 -27.640625 C 14.546875 -27.640625 17.171875 -25.0625 17.171875 -19.90625 L 17.171875 -17.921875 C 17.171875 -15.929688 17.148438 -14.3125 17.109375 -13.0625 L 7.625 -13.0625 L 7.625 -7.765625 C 7.625 -6.816406 7.722656 -6.078125 7.921875 -5.546875 C 8.117188 -5.015625 8.539062 -4.75 9.1875 -4.75 C 9.6875 -4.75 10.039062 -4.894531 10.25 -5.1875 C 10.457031 -5.488281 10.582031 -5.832031 10.625 -6.21875 C 10.664062 -6.601562 10.6875 -7.171875 10.6875 -7.921875 L 10.6875 -10.5625 L 17.171875 -10.5625 L 17.171875 -9 C 17.171875 -5.8125 16.554688 -3.460938 15.328125 -1.953125 C 14.097656 -0.453125 11.976562 0.296875 8.96875 0.296875 Z M 10.6875 -16.3125 L 10.6875 -19.828125 C 10.6875 -21.796875 10.195312 -22.78125 9.21875 -22.78125 C 8.125 -22.78125 7.578125 -21.796875 7.578125 -19.828125 L 7.578125 -16.3125 Z M 10.6875 -16.3125 "/></g></g></g><g fill="#ffffff" fill-opacity="1"><g transform="translate(88.502863, 56.630973)"><g><path d="M 1.3125 0 L 1.3125 -32.265625 L 7.953125 -32.265625 L 7.953125 0 Z M 1.3125 0 "/></g></g></g><g fill="#ffffff" fill-opacity="1"><g transform="translate(97.76202, 56.630973)"><g><path d="M 6.28125 0.296875 C 4.15625 0.296875 2.703125 -0.40625 1.921875 -1.8125 C 1.140625 -3.21875 0.75 -5.226562 0.75 -7.84375 C 0.75 -9.976562 1.023438 -11.617188 1.578125 -12.765625 C 2.140625 -13.910156 2.921875 -14.75 3.921875 -15.28125 C 4.921875 -15.820312 6.441406 -16.414062 8.484375 -17.0625 L 10.265625 -17.65625 L 10.265625 -20.46875 C 10.265625 -21.1875 10.117188 -21.738281 9.828125 -22.125 C 9.546875 -22.507812 9.207031 -22.703125 8.8125 -22.703125 C 8.46875 -22.703125 8.160156 -22.539062 7.890625 -22.21875 C 7.628906 -21.894531 7.5 -21.457031 7.5 -20.90625 L 7.5 -19.265625 L 1.15625 -19.265625 L 1.15625 -20.171875 C 1.15625 -22.859375 1.78125 -24.773438 3.03125 -25.921875 C 4.289062 -27.066406 6.34375 -27.640625 9.1875 -27.640625 C 11.445312 -27.640625 13.285156 -27.046875 14.703125 -25.859375 C 16.128906 -24.679688 16.84375 -23.007812 16.84375 -20.84375 L 16.84375 0 L 10.34375 0 L 10.34375 -3.25 C 10.019531 -2.125 9.503906 -1.25 8.796875 -0.625 C 8.085938 -0.0078125 7.25 0.296875 6.28125 0.296875 Z M 8.84375 -4.78125 C 9.34375 -4.78125 9.695312 -4.984375 9.90625 -5.390625 C 10.125 -5.804688 10.234375 -6.3125 10.234375 -6.90625 L 10.234375 -14.53125 C 9.265625 -14.15625 8.546875 -13.679688 8.078125 -13.109375 C 7.617188 -12.535156 7.390625 -11.738281 7.390625 -10.71875 L 7.390625 -7.203125 C 7.390625 -5.585938 7.875 -4.78125 8.84375 -4.78125 Z M 8.84375 -4.78125 "/></g></g></g><g fill="#7743db" fill-opacity="1"><g transform="translate(115.79118, 56.630973)"><g><path d="M 4.1875 0 L 4.1875 -25.921875 L 0.375 -25.921875 L 0.375 -32.078125 L 14.421875 -32.078125 L 14.421875 -25.921875 L 10.609375 -25.921875 L 10.609375 0 Z M 4.1875 0 "/></g></g></g><g fill="#7743db" fill-opacity="1"><g transform="translate(130.575957, 56.630973)"><g><path d="M 8.96875 0.296875 C 6.15625 0.296875 4.132812 -0.472656 2.90625 -2.015625 C 1.6875 -3.554688 1.078125 -5.859375 1.078125 -8.921875 L 1.078125 -19.90625 C 1.078125 -22.414062 1.800781 -24.332031 3.25 -25.65625 C 4.695312 -26.976562 6.710938 -27.640625 9.296875 -27.640625 C 14.546875 -27.640625 17.171875 -25.0625 17.171875 -19.90625 L 17.171875 -17.921875 C 17.171875 -15.929688 17.148438 -14.3125 17.109375 -13.0625 L 7.625 -13.0625 L 7.625 -7.765625 C 7.625 -6.816406 7.722656 -6.078125 7.921875 -5.546875 C 8.117188 -5.015625 8.539062 -4.75 9.1875 -4.75 C 9.6875 -4.75 10.039062 -4.894531 10.25 -5.1875 C 10.457031 -5.488281 10.582031 -5.832031 10.625 -6.21875 C 10.664062 -6.601562 10.6875 -7.171875 10.6875 -7.921875 L 10.6875 -10.5625 L 17.171875 -10.5625 L 17.171875 -9 C 17.171875 -5.8125 16.554688 -3.460938 15.328125 -1.953125 C 14.097656 -0.453125 11.976562 0.296875 8.96875 0.296875 Z M 10.6875 -16.3125 L 10.6875 -19.828125 C 10.6875 -21.796875 10.195312 -22.78125 9.21875 -22.78125 C 8.125 -22.78125 7.578125 -21.796875 7.578125 -19.828125 L 7.578125 -16.3125 Z M 10.6875 -16.3125 "/></g></g></g><g fill="#7743db" fill-opacity="1"><g transform="translate(148.795583, 56.630973)"><g><path d="M 9.515625 0.296875 C 6.535156 0.296875 4.382812 -0.457031 3.0625 -1.96875 C 1.738281 -3.488281 1.078125 -5.820312 1.078125 -8.96875 L 1.078125 -17.40625 C 1.078125 -19.769531 1.332031 -21.691406 1.84375 -23.171875 C 2.351562 -24.648438 3.210938 -25.765625 4.421875 -26.515625 C 5.628906 -27.265625 7.304688 -27.640625 9.453125 -27.640625 C 11.785156 -27.640625 13.6875 -27.023438 15.15625 -25.796875 C 16.625 -24.578125 17.359375 -22.875 17.359375 -20.6875 L 17.359375 -16.5 L 10.71875 -16.5 L 10.71875 -20.359375 C 10.71875 -21.078125 10.617188 -21.628906 10.421875 -22.015625 C 10.222656 -22.398438 9.835938 -22.59375 9.265625 -22.59375 C 8.191406 -22.59375 7.65625 -21.832031 7.65625 -20.3125 L 7.65625 -7.0625 C 7.65625 -6.4375 7.785156 -5.90625 8.046875 -5.46875 C 8.304688 -5.03125 8.695312 -4.8125 9.21875 -4.8125 C 9.75 -4.8125 10.144531 -5.023438 10.40625 -5.453125 C 10.664062 -5.878906 10.78125 -6.425781 10.75 -7.09375 L 10.71875 -11.6875 L 17.359375 -11.6875 L 17.359375 -6.90625 C 17.359375 -4.664062 16.628906 -2.90625 15.171875 -1.625 C 13.722656 -0.34375 11.835938 0.296875 9.515625 0.296875 Z M 9.515625 0.296875 "/></g></g></g><g fill="#7743db" fill-opacity="1"><g transform="translate(167.12721, 56.630973)"><g><path d="M 1.3125 -32.265625 L 8.03125 -32.265625 L 8.03125 -24.640625 C 8.726562 -26.640625 10.0625 -27.640625 12.03125 -27.640625 C 13.863281 -27.640625 15.253906 -27.050781 16.203125 -25.875 C 17.148438 -24.707031 17.625 -23.101562 17.625 -21.0625 L 17.625 0 L 11.09375 0 L 11.09375 -20.65625 C 11.09375 -21.25 10.953125 -21.734375 10.671875 -22.109375 C 10.398438 -22.484375 10.003906 -22.671875 9.484375 -22.671875 C 9.035156 -22.671875 8.679688 -22.476562 8.421875 -22.09375 C 8.160156 -21.707031 8.03125 -21.238281 8.03125 -20.6875 L 8.03125 0 L 1.3125 0 Z M 1.3125 -32.265625 "/></g></g></g><g fill="#ffffff" fill-opacity="1"><g transform="translate(155.901803, 73.824204)"><g><path d="M 11.40625 -2.140625 L 0.921875 -6.765625 L 0.921875 -8.265625 L 11.40625 -13.5 L 11.40625 -10.96875 L 4.1875 -7.625 L 11.40625 -4.65625 Z M 11.40625 -2.140625 "/></g></g></g><g fill="#ffffff" fill-opacity="1"><g transform="translate(168.240092, 73.824204)"><g><path d="M 12.578125 0 L 9.359375 0 L 9.359375 -6.890625 C 9.359375 -8.585938 8.722656 -9.4375 7.453125 -9.4375 C 6.554688 -9.4375 5.90625 -9.128906 5.5 -8.515625 C 5.101562 -7.910156 4.90625 -6.921875 4.90625 -5.546875 L 4.90625 0 L 1.6875 0 L 1.6875 -16.421875 L 4.90625 -16.421875 L 4.90625 -13.078125 C 4.90625 -12.816406 4.878906 -12.203125 4.828125 -11.234375 L 4.765625 -10.28125 L 4.921875 -10.28125 C 5.640625 -11.4375 6.78125 -12.015625 8.34375 -12.015625 C 9.726562 -12.015625 10.78125 -11.640625 11.5 -10.890625 C 12.21875 -10.148438 12.578125 -9.082031 12.578125 -7.6875 Z M 12.578125 0 "/></g></g></g><g fill="#ffffff" fill-opacity="1"><g transform="translate(182.446533, 73.824204)"><g><path d="M 8.921875 0 L 5.671875 0 L 5.671875 -8.921875 L 5.703125 -10.390625 L 5.75 -12 C 5.207031 -11.457031 4.832031 -11.101562 4.625 -10.9375 L 2.84375 -9.5 L 1.28125 -11.46875 L 6.25 -15.421875 L 8.921875 -15.421875 Z M 8.921875 0 "/></g></g></g><g fill="#ffffff" fill-opacity="1"><g transform="translate(194.784822, 73.824204)"><g><path d="M 8.828125 -15.421875 L 3.078125 0 L 0.140625 0 L 5.890625 -15.421875 Z M 8.828125 -15.421875 "/></g></g></g><g fill="#ffffff" fill-opacity="1"><g transform="translate(203.713982, 73.824204)"><g><path d="M 0.921875 -4.65625 L 8.140625 -7.625 L 0.921875 -10.96875 L 0.921875 -13.5 L 11.40625 -8.265625 L 11.40625 -6.765625 L 0.921875 -2.140625 Z M 0.921875 -4.65625 "/></g></g></g><g fill="#ffffff" fill-opacity="1"><g transform="translate(8.81801, 23.656456)"><g><path d="M 11.40625 -2.140625 L 0.921875 -6.765625 L 0.921875 -8.265625 L 11.40625 -13.5 L 11.40625 -10.96875 L 4.1875 -7.625 L 11.40625 -4.65625 Z M 11.40625 -2.140625 "/></g></g></g><g fill="#ffffff" fill-opacity="1"><g transform="translate(21.156299, 23.656456)"><g><path d="M 12.578125 0 L 9.359375 0 L 9.359375 -6.890625 C 9.359375 -8.585938 8.722656 -9.4375 7.453125 -9.4375 C 6.554688 -9.4375 5.90625 -9.128906 5.5 -8.515625 C 5.101562 -7.910156 4.90625 -6.921875 4.90625 -5.546875 L 4.90625 0 L 1.6875 0 L 1.6875 -16.421875 L 4.90625 -16.421875 L 4.90625 -13.078125 C 4.90625 -12.816406 4.878906 -12.203125 4.828125 -11.234375 L 4.765625 -10.28125 L 4.921875 -10.28125 C 5.640625 -11.4375 6.78125 -12.015625 8.34375 -12.015625 C 9.726562 -12.015625 10.78125 -11.640625 11.5 -10.890625 C 12.21875 -10.148438 12.578125 -9.082031 12.578125 -7.6875 Z M 12.578125 0 "/></g></g></g><g fill="#ffffff" fill-opacity="1"><g transform="translate(35.36274, 23.656456)"><g><path d="M 8.921875 0 L 5.671875 0 L 5.671875 -8.921875 L 5.703125 -10.390625 L 5.75 -12 C 5.207031 -11.457031 4.832031 -11.101562 4.625 -10.9375 L 2.84375 -9.5 L 1.28125 -11.46875 L 6.25 -15.421875 L 8.921875 -15.421875 Z M 8.921875 0 "/></g></g></g><g fill="#ffffff" fill-opacity="1"><g transform="translate(47.701029, 23.656456)"><g><path d="M 0.921875 -4.65625 L 8.140625 -7.625 L 0.921875 -10.96875 L 0.921875 -13.5 L 11.40625 -8.265625 L 11.40625 -6.765625 L 0.921875 -2.140625 Z M 0.921875 -4.65625 "/></g></g></g></svg>